<?xml version="1.0" encoding="utf-8"?>
<!-- Generator: Adobe Adobe Illustrator 24.2.0, SVG Export Plug-In . SVG Version: 6.00 Build 0)  -->
<svg version="1.1" id="Layer_1" xmlns="http://www.w3.org/2000/svg" xmlns:xlink="http://www.w3.org/1999/xlink" x="0px" y="0px"
	 width="1728px" height="930px" viewBox="0 0 1728 930" style="enable-background:new 0 0 1728 930;" xml:space="preserve">
<style type="text/css">
	.st0{fill:#121111;}
	.st1{fill:#B31414;}
	.st2{opacity:0.6196;fill:#A19A9A;}
	.st3{fill:#FFFFFF;}
	.st4{fill:#FFFFFF;stroke:#FFFFFF;stroke-width:14;stroke-linecap:round;stroke-miterlimit:10;}
	.st5{fill:none;stroke:#FFFFFF;stroke-width:14;stroke-linecap:round;stroke-miterlimit:10;}
</style>
<g>
	<g>
		<g>
			<path class="st1" d="M625.86,447.76l109.93,0.55c4.01,0.02,7.27-3.27,7.28-7.33l0.65-352.79c0.01-4.06-3.24-7.36-7.25-7.36
				l-111.25,0.05c-4,0-7.25,3.3-7.24,7.36l0.67,352.19C618.66,444.47,621.88,447.74,625.86,447.76z"/>
			<path class="st1" d="M1075.06,429.16c4.68-2.68,7.52-7.62,7.6-12.94c0.82-54.78,0.63-132.58,0.57-149.94
				c-0.01-1.99-1.64-2.22-3.67-2.21c-17.79,0.07-95.32,0.36-118.25,0.32c-2.92-0.01-5.29,2.33-5.28,5.19
				c0.05,22.51,0.95,119.32,0.95,119.32s-40.43,10.69-53.93-46.81c-0.58-2.46-1.07-4.94-1.43-7.42
				c-4.83-33.41-4.83-90.89,0.9-124.16c6.33-36.76,33.83-61.56,71.75-63.67c35.72-1.98,71.19,21.17,83.96,53.82
				c0.43,1.11,2.07,0.81,2.06-0.38l-0.51-106.38c0,0,0,0,0,0c0,1.23-1.32,2-2.43,1.44c-82.09-41.36-195.19-18.65-248.73,55.18
				c-56.51,77.92-54.44,188.45,5.79,256.07C873.87,473.35,996.45,474.13,1075.06,429.16z"/>
			<path class="st1" d="M1251.52,449.75c-1.75-48.78-1.33-129.27-1.18-150.04c0.02-2.78,2.31-5.01,5.12-5.01l32.8,0.06
				c2.82,0.01,5.11,2.27,5.1,5.07l-0.39,147c-0.01,2.79,2.27,5.06,5.09,5.07l115.72,0.41c2.83,0.01,5.13-2.25,5.13-5.05l0.46-358.08
				c0-2.77-2.24-5.03-5.04-5.06c-18.3-0.21-82-0.87-118.47-0.34c-2.81,0.04-5.05,2.3-5.03,5.08c0.26,41.08,0.52,82.69,0.77,123.77
				c0.02,2.81-2.28,5.09-5.12,5.08c-11.83-0.03-26.86-0.23-34.54-0.35c-2.79-0.04-5.02-2.28-5.02-5.04
				c-0.02-18.32-0.06-83.1,0.11-123.03c0.01-2.77-2.23-5.02-5.03-5.06l-118.5-1.82c-2.85-0.04-5.18,2.21-5.19,5.03
				c-0.07,35.41-0.5,246.4-0.29,362.92c0,2.79,2.29,5.04,5.11,5.04c40.48-0.03,81.65-0.37,123.3-0.43
				C1249.31,454.97,1251.62,452.61,1251.52,449.75z"/>
			<path class="st1" d="M524.96,755.85c-25.77,21.03-46.66,36.61-75.49,34.08c-28.83-2.53-54.8-31.91-61.42-60.08
				c-5.15-21.89-11.1-65.35-3.86-112.22c5.64-36.45,19.3-68.3,62.32-76.65c47.44-9.2,72.2,33.22,82.72,58.33
				c1.44,3.44,6.56,2.44,6.61-1.29c0.51-35.62,0.32-74.02,1.12-108.44c-79.19-37.83-196.39-11.6-248.85,61.07
				c-52.46,72.68-48.98,195.42,14.54,258.66s182.41,79.31,262.87-7.2C548.22,776.69,535.9,773.84,524.96,755.85z"/>
			<path class="st1" d="M810.89,776.48c-37.84,0.19-72.29,0.81-110.68-0.28c-0.66,0-0.24-185.63,1.77-282.28
				c0.14-6.8-5.36-12.41-12.29-12.54c-22.01-0.41-68.35-0.99-101.58-1.2c-7.55-0.05-13.7,5.94-13.69,13.36
				c0.02,59.83,0.09,301.25,0.1,349.12c0,4.58,3.77,8.29,8.43,8.31l227.61,0.96c4.68,0.02,8.49-3.68,8.51-8.28
				c0.05-12.89,0.15-38.33,0.34-58.78C819.45,780.23,815.62,776.46,810.89,776.48z"/>
			<path class="st1" d="M1108.63,480.61c-18.78-0.2-36.92-0.09-54.71,0.05c-6.84,0.06-12.32,5.73-12.24,12.68
				c0.47,41.66,1.14,176.68-1.17,250.16c-0.02,0.73-0.1,1.46-0.25,2.17c-3.89,18.15-21.44,32.36-39.75,31.97
				c-18.68-0.4-37.14-15.31-37.44-34.94c-1.11-73.36-0.53-213.42-0.14-250.08c0.05-4.95-3.87-8.99-8.73-9.01
				c-35.72-0.13-71.52,0.49-108.29-0.63c-7.04-0.21-12.82,5.59-12.7,12.74c1.57,95.87,2.8,239.67,3.4,257.94
				c2.32,70,75.31,107.37,157.57,108.52c53.64,0.75,124.35-41.8,123.68-125.55c1.26-78.94,2.52-162.85,3-243.41
				C1120.9,486.32,1115.43,480.68,1108.63,480.61z"/>
			<path class="st1" d="M1395.73,658.27c-2.49-0.53-2.75-3.93-0.38-4.86c45.46-17.72,60.85-52.86,54.93-99.9
				c-5.28-41.94-57.02-72.84-98-72.82c-65.1,0.04-137.64,0.24-202.78,2.01c-0.9,0.02-1.62,0.75-1.64,1.66
				c-2.18,119.92-1.22,368.9-1.22,368.9c33.05,2.29,82.42,4.22,120.47,3.74c39.25-0.5,88.33,1.53,126.36-8.2
				c23.93-6.12,64.51-37.22,69.46-98.89C1466.99,699.34,1434.73,666.56,1395.73,658.27z M1279.48,584.61l0.29-35.12
				c49.33,3.62,50.98,39.84,41.22,57.14c-8.49,15.04-35.26,17.05-40.42,17.3c-0.48,0.02-0.87-0.35-0.87-0.83
				C1279.68,619.85,1279.62,607.3,1279.48,584.61z M1332.59,741.7c-1.19,30.42-28.92,44.49-52.59,43.27l-0.11-93.03
				C1280.72,691.86,1334.61,690.12,1332.59,741.7z"/>
			<path class="st1" d="M247.8,218.57l-76.21,6.16c-1.98,0.16-3.66-1.45-3.57-3.44l2.62-62.82c0.07-1.75,1.5-3.14,3.25-3.17
				l103.87-1.88c1.81-0.03,3.25-1.51,3.25-3.32l-0.16-64.95c0-1.82-1.48-3.3-3.31-3.3l-239.1,0.01c-1.93,0-3.46,1.65-3.3,3.58
				l60.9,741.49c0.33,3.98,6.12,4.08,6.58,0.11l61.42-524.84c0.21-1.82,1.87-3.12,3.69-2.9l78.59,9.68
				c1.95,0.24,3.68-1.26,3.71-3.23l1.34-83.84C251.4,219.97,249.74,218.41,247.8,218.57z"/>
			<path class="st1" d="M1705.37,83.05c-0.01-1.46-1.2-2.64-2.66-2.64L1437,80.58c-1.47,0-2.67,1.2-2.65,2.68l0.62,75.26
				c0.01,1.52,1.3,2.72,2.81,2.63l62.49-3.69c1.43-0.08,2.67,0.98,2.8,2.4l62.67,659.5c0.31,3.21,5,3.2,5.29-0.01l59.4-659.73
				c0.13-1.44,1.39-2.52,2.84-2.41l69.75,5.1c1.55,0.11,2.86-1.12,2.85-2.67L1705.37,83.05z"/>
			<path class="st1" d="M295.17,445.88l117.99,0.79c3.04,0.02,5.52-2.41,5.5-5.4l-0.47-89.21c-0.03-5.95,8.33-7.52,10.55-1.99
				l36.8,92.03c0.82,2.04,2.81,3.39,5.04,3.41l131.34,1.13c4.06,0.03,6.74-4.13,4.96-7.72l-77.01-155.39
				c-1.34-2.7-0.15-5.92,2.61-7.22c45.22-21.34,55.53-65.77,52.98-100.2c-4.67-63.22-59.98-92.55-109.97-93.19
				c-48.78-0.63-154.02-0.91-179.11-0.97c-3.02-0.01-5.46,2.39-5.47,5.35l-1.15,353.2C289.73,443.45,292.16,445.86,295.17,445.88z
				 M417.18,151.36c0,0,7.64-0.35,14.83,0.15c5.7,0.4,11.98,3.36,15.24,6.02c4.27,3.48,9.11,7.13,11.06,17.91
				c1.46,8.07,2.35,12.97-0.08,27.68c-2.9,17.62-19.33,24.2-28.13,24.6c-3.11,0.14-9.6,0-13.14,0.02L417.18,151.36z"/>
		</g>
	</g>
</g>
</svg>
